Patient4_TMGait_0pt6_01_right_17_EMG.mot
version=1
nRows=23
nColumns=33
inDegrees=no
endheader
time	1LAddLong	2LGlutMax	3LGlutMed	4LIliopsoas	5LSemiMemb	6LBicFemLong	7LRecFem	8LVastMed	9LVastLat	10LGasMed	11LTibAnt	12lTibPost	13LPeroneusLong	14LSol	15LExtDigLong	16LFlexDigLong	17RAddLong	18RGlutMax	19RGlutMed	20RIliopsoas	21RSemiMemb	22RBicFemLong	23RRecFem	24RVastMed	25RVastLat	26RGasMed	27RTibAnt	28RTibPost	29RPeroneusLong	30RSol	31RExtDigLong	32RFlexDigLong
20.542	-0.002747	-0.6189	0.0354	0.046234	-0.001373	0.10788	-0.11765	0.006714	-0.056305	0.14252	0.097504	0.011597	0.034027	0.33875	-0.39414	0.001678	0.059204	-0.64041	0.23651	0.21225	-0.053101	-0.46677	-0.29343	-0.16327	-0.10178	0.013123	0.33951	-0.016022	-1.3828	-0.003357	-0.004883	-0.018921
20.543	-0.008545	-0.65353	0.023499	0.030975	-0.00824	0.098877	-0.20844	0.011749	-0.041504	0.25986	0.079651	0.032654	0.084991	0.12512	-0.21469	0.006104	0.018921	-0.65704	0.28809	0.038147	0.02182	-0.54779	-0.25818	-0.036469	-0.18112	0.020905	0.15701	-0.009918	1.3737	-0.075378	0.003204	-0.014191
20.544	0.007172	-0.70267	-0.03952	0.003052	-0.007935	0.11261	-0.34134	0.024719	-0.013428	0.40283	0.11002	0.012512	0.046082	0.04425	-0.21301	0.009766	-0.026855	-0.72967	0.11276	-0.17502	-0.15991	-0.69778	-0.10178	0.066376	-0.25757	0.026245	-0.018921	-0.00946	-0.62698	0.045624	-0.000458	-0.019836
20.545	0.006104	-0.77057	-0.034637	-0.015564	0.003204	0.084229	-0.34744	0.012512	0.045471	0.27374	0.23682	0.019684	-0.062256	-0.003357	-0.58151	0.00473	-0.033722	-0.8374	0.015717	-0.15198	-0.17761	-0.44128	0.09613	0.11795	-0.24155	0.027618	-0.044403	-0.009766	-2.682	0.050812	-0.003815	-0.013885
20.546	0.004578	-0.83084	-0.036774	-0.008392	-0.00885	0.071869	-0.1947	0.008087	0.11261	-0.18356	0.24551	0.017548	-0.049438	-0.060425	-0.50354	0.021362	-0.17166	-0.99243	-0.24551	-0.028229	-0.070038	-0.014343	-0.031433	0.14801	-0.12192	0.024719	-0.16907	-0.005341	-1.0368	-0.058899	-0.000305	-0.02182
20.547	0.005493	-0.84976	-0.01358	-0.012054	0.00351	0.070648	-0.048981	-0.002289	0.16098	-0.39246	-0.011902	0.005493	-0.09903	-0.076752	-0.33188	0.036926	-0.13825	-1.1101	0.041656	0.12451	-0.46249	0.035553	-0.5629	0.006409	0.015106	0.018311	-0.19623	-0.004425	0.36529	-0.31982	-0.001526	-0.019989
20.548	-0.00473	-0.86258	-0.00351	0.001221	-0.006714	0.067902	-0.049133	-0.009918	0.15579	-0.19547	-0.22644	0.014191	-0.16419	-0.13046	-0.11261	0.023956	-0.10361	-1.2428	-0.15503	0.055542	-0.092316	-0.23224	-0.7576	-0.012207	0.049591	0.001526	0.065765	-0.015106	-0.019379	-0.033569	-0.002441	-0.024414
20.549	0.007172	-0.90256	-0.026398	0.001526	-0.006714	0.072327	-0.159	0.000153	0.17746	-0.065155	-0.17487	0.028992	-0.18021	-0.098572	0.16205	0.014801	-0.078125	-1.3721	-0.73074	-0.15488	0.21561	-0.22812	-0.15488	0.094452	-0.054626	-0.005798	0.22186	-0.029602	0.061188	0.18799	0.001373	-0.027008
20.55	0.007935	-0.94238	-0.024109	-0.002594	-0.009155	0.053253	-0.20615	0.000153	0.17944	0.001526	-0.15869	0.016174	-0.018921	-0.050812	0.44128	0.03006	-0.019379	-1.4958	-0.64789	-0.16342	0.12604	-0.33814	0.30334	0.046844	-0.13123	-0.009003	0.21072	-0.016174	0.44678	0.12222	-0.002747	-0.0177
20.551	0.006409	-0.89645	-0.02182	-0.001831	-0.001984	0.046387	-0.084991	0.006714	0.18784	-0.040588	-0.079193	0.035858	-0.061188	-0.034332	0.076447	0.023346	-0.002136	-1.7661	-0.85785	-0.030823	0.049133	-0.41275	0.53162	-0.076599	-0.15656	-0.003357	0.027618	-0.022583	0.72967	0.19486	0	-0.013428
20.552	0.026245	-0.86273	-0.034637	0.009613	-0.003052	0.026703	-0.12161	0.011139	0.18021	-0.003052	0.023499	0.040436	0.026093	0.000763	0.006409	0.02594	-0.009003	-1.9089	-0.85175	0.12711	0.11261	-0.32959	0.46661	-0.06897	-0.14679	-0.040741	0.024261	-0.044403	0.23163	0.17227	0	-0.003052
20.553	0.001984	-0.82291	-0.004883	-0.001221	-0.002441	0.053558	-0.10742	0.011902	0.17044	0.004425	0.11917	0.03006	0.0354	-0.050049	-0.063934	0.005646	-0.046539	-2.0673	-0.80734	0.36453	-0.08667	-0.26093	0.31357	-0.16342	-0.07431	-0.08606	-0.012665	-0.051422	-0.17883	0.29907	-0.001984	-0.017395
20.554	0.031586	-0.77743	0.055237	0.004883	-0.010834	0.043335	-0.068665	0.010834	0.15762	0.0737	0.099487	0.024109	0.025177	-0.14465	0.12894	0.015869	-0.040283	-2.1878	-0.38437	0.28534	-0.35858	-0.17822	0.10498	-0.057831	0.099945	-0.10101	-0.037537	-0.003815	-0.55512	0.30853	-0.006256	-0.012054
20.555	0.014801	-0.80246	0.014954	0.017242	-0.007629	0.036926	0.023193	0.006256	0.15671	0.10162	0.12558	0.023499	-0.043945	0.078125	0.74951	0.043335	-0.046692	-2.2301	-0.54749	0.13534	-0.22064	-0.1149	0.018158	0.03479	0.49423	-0.14908	0.021667	0.14954	-0.72708	0.23346	-0.003662	-0.021057
20.556	-0.010681	-0.77255	-0.076752	-0.001831	-0.005188	0.034637	0.066681	0.008698	0.15564	0.076599	0.095673	0.029755	-0.11536	0.17929	0.73074	0.041046	-0.066986	-2.2607	-0.65887	0.003815	-0.13473	-0.097351	0.10574	0.28	0.46127	-0.084534	0.15579	0.061951	1.0953	0.21027	0.001678	-0.011597
20.557	-0.000153	-0.73852	-0.064697	-0.009918	0.002441	0.004578	0.080261	0.007324	0.14435	0.069275	-0.090332	0.030823	-0.11108	0.10941	-0.051422	0.040131	-0.066833	-2.2102	-1.0312	-0.018768	0.22415	-0.056305	0.3743	0.46127	0.26489	-0.05249	0.28671	-0.016785	1.127	0.16998	-0.003357	-0.018616
20.558	-0.001526	-0.78018	-0.075073	-0.013733	0.007935	0.019073	0.25726	0.009613	0.13123	0.058899	-0.11536	0.030518	-0.018005	0.10101	-0.13275	0.048218	-0.026855	-2.3329	-1.1168	-0.020294	0.5983	0.14557	0.5481	0.448	0.15945	-0.007477	0.2417	-0.030975	0.85129	-0.14557	-0.011139	-0.025787
20.559	-0.031891	-0.83374	-0.048676	-0.011444	0.010681	0.002747	0.3598	0.008087	0.112	0.070801	-0.11993	0.037537	-0.009766	0.086823	-0.26794	0.03418	-0.022278	-2.2925	0.29587	-0.090942	0.37216	0.80475	0.55145	0.26611	0.003357	0.12543	0.005951	-0.017853	0.49423	-0.25101	-0.00351	-0.016174
20.56	-0.025177	-0.79483	-0.03006	0.010986	0.007019	0.005798	0.40451	0.008545	0.091248	0.053558	-0.070038	0.016174	-0.022736	0.072021	-0.34027	0.034332	-0.045624	-2.1487	0.45853	0.058136	0.16052	0.59006	0.042419	0.10361	-0.28748	0.13214	0.015717	-0.00885	-0.18723	0.025024	-0.002747	-0.025177
20.561	-0.02655	-0.74875	-0.025482	0.023956	0.009308	0.013123	0.49835	0.011902	0.073547	0.074158	0.055695	0.016327	-0.046082	0.02594	-0.63339	0.057068	-0.081024	-1.9913	0.42404	0.21866	0.094299	-0.059052	-0.6572	-0.041809	-0.42801	0.052185	0.20432	0.001678	-0.76141	0.089417	0.000153	-0.025177
20.562	-0.018768	-0.75653	-0.1207	0.017395	0.01297	0.011292	0.56305	0.014343	0.041962	0.080872	0.002289	0.012054	-0.049591	-0.040741	-0.44357	0.023499	-0.053101	-1.9455	-0.88974	0.25909	0.030975	-0.31403	-0.47577	-0.1648	-0.50537	0.029907	0.14206	0.00061	0.094147	-0.080719	-0.003357	-0.033875
20.563	-0.02182	-0.69443	-0.094604	0.01358	0.01358	0.005035	0.62485	0.013733	0.024109	0.058441	-0.23209	0.033112	0.038757	-0.00473	-0.12817	0.063324	-0.0177	-1.8599	-1.4127	0.053864	-0.043945	-0.22537	0.012207	-0.17883	-0.36407	0.015106	0.001221	-0.002289	0.99579	-0.27069	-0.002441	-0.016937
20.564	-0.01358	-0.61844	-0.086365	0.012207	0.013733	-0.002899	0.49271	0.015259	0.015564	0.096283	-0.33493	0.044403	-0.000916	0.072021	0.18082	0.04715	0.008698	-1.7485	-1.5019	0.014648	-0.058441	-0.12238	-0.11017	-0.16647	-0.058899	0.010681	0.11002	-0.002747	1.2474	-0.50095	0.00061	-0.021057
